<?xml version="1.0" encoding="UTF-8"?>
<svg width="50px" height="65px" viewBox="0 0 50 65" version="1.1" xmlns="http://www.w3.org/2000/svg" xmlns:xlink="http://www.w3.org/1999/xlink">
    <!-- Generator: Sketch 49 (51002) - http://www.bohemiancoding.com/sketch -->
    <title>icon.general</title>
    <desc>Created with Sketch.</desc>
    <defs></defs>
    <g id="icon.general" stroke="none" stroke-width="1" fill="none" fill-rule="evenodd">
        <g id="Group-7" transform="translate(7.200000, 9.599999)">
            <path d="M7.19999957,1.32575107e-14 L23.7320787,4.36983756e-14 L37.3333311,14.415087 L37.3333311,38.3999977 C37.3333311,42.3764477 34.1097815,45.5999973 30.1333315,45.5999973 L7.19999957,45.5999973 C3.22354961,45.5999973 4.86974672e-16,42.3764477 0,38.3999977 L-1.42108547e-14,7.19999957 C-1.46978294e-14,3.22354961 3.22354961,1.61864043e-15 7.19999957,8.8817842e-16 Z" id="Rectangle-2" fill="#E00F6A"></path>
            <path d="M23.7109849,0 L37.3558571,14.3999991 L30.9109845,14.3999991 C26.9345345,14.3999991 23.7109849,11.1764495 23.7109849,7.19999957 L23.7109849,0 Z" id="Rectangle-4" fill="#840E3E"></path>
        </g>
        <path d="M31.868268,28.4535768 C32.4175554,28.4535768 32.692195,28.7531836 32.692195,29.3524063 L32.692195,43.9583856 C32.692195,45.9058593 32.0929814,47.4787951 30.8945361,48.6772405 C29.746026,49.8257506 28.3478607,50.399997 26.6999984,50.399997 C25.1020713,50.399997 23.7039061,49.8132669 22.5054608,48.6397892 C21.3070154,47.4663115 20.7078018,45.8559248 20.7078018,43.8085807 L20.7078018,26.2814055 C20.7078018,24.3838671 21.4318516,23.0356363 22.8799731,22.2366728 C24.3780297,21.387774 25.8011622,21.387774 27.1494132,22.2366728 C28.5975346,23.1355068 29.3215844,24.4837375 29.3215844,26.2814055 L29.246682,43.1344586 C29.246682,44.133163 29.0219769,44.9321146 28.5725599,45.5313372 C28.1231429,46.1305599 27.498962,46.4301667 26.6999984,46.4301667 C26.0009053,46.4301667 25.4016916,46.1430435 24.9023394,45.5687885 C24.4029872,44.9945334 24.1533148,44.1830982 24.1533148,43.1344586 L24.1533148,30.1763333 C24.1533148,29.9765924 24.2531838,29.7768546 24.4529247,29.5771137 C24.6526656,29.3773728 24.8524034,29.2775038 25.0521443,29.2775038 C25.6014318,29.2775038 25.8760714,29.5771107 25.8760714,30.1763333 L25.8760714,43.1344586 C25.8760714,44.1830982 26.150711,44.7074102 26.6999984,44.7074102 C26.8498041,44.7074102 27.0245747,44.6075412 27.2243156,44.4078004 C27.4739917,44.0582538 27.5988279,43.6338108 27.5988279,43.1344586 L27.5988279,26.2814055 C27.5988279,25.033025 27.1743849,24.1841389 26.3254861,23.7347219 C25.4266521,23.2353697 24.5527989,23.2353697 23.7039001,23.7347219 C22.8550013,24.1841389 22.4305583,25.033025 22.4305583,26.2814055 L22.4305583,43.8085807 C22.4305583,45.3565726 22.8550013,46.5425163 23.7039001,47.3664474 C24.5527989,48.1903786 25.5514883,48.602338 26.6999984,48.602338 C27.8485085,48.602338 28.847198,48.2028622 29.6960967,47.4038987 C30.5449955,46.6049351 30.9694385,45.431475 30.9694385,43.8834832 L30.9694385,29.2775038 C30.9694385,28.7282164 31.2690454,28.4535768 31.868268,28.4535768 Z" id="ion-paperclip---Ionicons" stroke="#FFFFFF" stroke-width="0.719999957" fill="#FFFFFF" transform="translate(26.699998, 35.999998) rotate(-43.000000) translate(-26.699998, -35.999998) "></path>
    </g>
</svg>