<svg height="20" viewBox="0 0 20 20" width="20" xmlns="http://www.w3.org/2000/svg"><path d="m15.1188785 12.5123923-.215984.3743023 4.9178343 4.9151817c.5020498.501779.5022693 1.315543.0004903 1.8175928-.001559.0015598-.003122.0031157-.004689.0046675-.5077224.502793-1.3262651.500907-1.8316651-.0042204l-4.9178343-4.9151817-.3779719.2673588c-1.4399004.8912005-2.93377468 1.336794-4.4816676 1.336794-2.26784312 0-4.20268025-.8020684-5.80456943-2.4062292-1.60188919-1.6041609-2.40282177-3.5291251-2.40282177-5.77495031 0-2.24582522.80093258-4.16187753 2.40282177-5.74821439 1.60188918-1.58633686 3.53672631-2.3794934 5.80456943-2.3794934 2.2678431 0 4.2026802.79315654 5.8045694 2.3794934s2.4028218 3.50238917 2.4028218 5.74821439c0 1.56851286-.4319636 3.03005971-1.2959039 4.38468451zm-2.9465905-8.3074262c-1.0873937-1.07683644-2.40778047-1.61524658-3.96119998-1.61524658s-2.87380629.53841014-3.96119994 1.61524658c-1.08739366 1.07683643-1.63108234 2.38440392-1.63108234 3.92274169s.54368868 2.84590521 1.63108234 3.92274171c1.08739365 1.0768364 2.40778043 1.6152466 3.96119994 1.6152466s2.87380628-.5384102 3.96119998-1.6152466c1.118462-1.1076032 1.6776847-2.4151707 1.6776847-3.92274171s-.5592227-2.8151385-1.6776847-3.92274169z" fill="#0d9b70" fill-rule="evenodd"/></svg>