<svg height="20" viewBox="0 0 20 20" width="20" xmlns="http://www.w3.org/2000/svg"><g fill="#0d9b70" fill-rule="evenodd"><path d="m18.3337239 2c.9186783 0 1.6662761.742372 1.6662761 1.65462851v14.68764009c0 .9153594-.7475978 1.6577314-1.6662761 1.6577314h-16.66744783c-.91867823 0-1.66627607-.742372-1.66627607-1.6577314v-14.68764009c0-.91225651.74759784-1.65462851 1.66627607-1.65462851zm.6662761 16.6255v-15.2538c0-.2051-.180321-.3717-.4023127-.3717h-17.19537457c-.22199177 0-.40231273.1666-.40231273.3717v15.2538c0 .2079.18032096.3745.40231273.3745h17.19537457c.2219917 0 .4023127-.1666.4023127-.3745zm-5-1.1255c-.5522847 0-1-.4477153-1-1v-1c0-.5522847.4477153-1 1-1h1c.5522847 0 1 .4477153 1 1v1c0 .5522847-.4477153 1-1 1zm-9-8c-.55228475 0-1-.44771525-1-1v-1c0-.55228475.44771525-1 1-1h1c.55228475 0 1 .44771525 1 1v1c0 .55228475-.44771525 1-1 1zm0 4c-.55228475 0-1-.4477153-1-1v-1c0-.5522847.44771525-1 1-1h1c.55228475 0 1 .4477153 1 1v1c0 .5522847-.44771525 1-1 1zm0 4c-.55228475 0-1-.4477153-1-1v-1c0-.5522847.44771525-1 1-1h1c.55228475 0 1 .4477153 1 1v1c0 .5522847-.44771525 1-1 1zm4.5-8c-.55228475 0-1-.44771525-1-1v-1c0-.55228475.44771525-1 1-1h1c.5522847 0 1 .44771525 1 1v1c0 .55228475-.4477153 1-1 1zm0 4c-.55228475 0-1-.4477153-1-1v-1c0-.5522847.44771525-1 1-1h1c.5522847 0 1 .4477153 1 1v1c0 .5522847-.4477153 1-1 1zm0 4c-.55228475 0-1-.4477153-1-1v-1c0-.5522847.44771525-1 1-1h1c.5522847 0 1 .4477153 1 1v1c0 .5522847-.4477153 1-1 1zm4.5-8c-.5522847 0-1-.44771525-1-1v-1c0-.55228475.4477153-1 1-1h1c.5522847 0 1 .44771525 1 1v1c0 .55228475-.4477153 1-1 1zm0 4c-.5522847 0-1-.4477153-1-1v-1c0-.5522847.4477153-1 1-1h1c.5522847 0 1 .4477153 1 1v1c0 .5522847-.4477153 1-1 1z"/><path d="m5 5c.55228475 0 1-.44771525 1-1v-3c0-.55228475-.44771525-1-1-1-.55228475 0-1 .44771525-1 1v3c0 .55228475.44771525 1 1 1z"/><path d="m10 5c.5522847 0 1-.44771525 1-1v-3c0-.55228475-.4477153-1-1-1-.55228475 0-1 .44771525-1 1v3c0 .55228475.44771525 1 1 1z"/><path d="m15 5c.5522847 0 1-.44771525 1-1v-3c0-.55228475-.4477153-1-1-1-.5522847 0-1 .44771525-1 1v3c0 .55228475.4477153 1 1 1z"/></g></svg>