<?xml version="1.0" encoding="UTF-8"?>
<svg width="190px" height="190px" viewBox="0 0 190 190" version="1.1" xmlns="http://www.w3.org/2000/svg" xmlns:xlink="http://www.w3.org/1999/xlink">
    <!-- Generator: Sketch 53 (72520) - https://sketchapp.com -->
    <title>ico-ppd</title>
    <desc>Created with Sketch.</desc>
    <defs>
        <rect id="path-1" x="0" y="0" width="190" height="190"></rect>
    </defs>
    <g id="Symbols" stroke="none" stroke-width="1" fill="none" fill-rule="evenodd">
        <g id="icon/product/ppd">
            <g id="Group">
                <mask id="mask-2" fill="white">
                    <use xlink:href="#path-1"></use>
                </mask>
                <g id="Mask"></g>
                <g id="Group-26" mask="url(#mask-2)" stroke="#0D9B70" stroke-linecap="round" stroke-linejoin="round" stroke-width="12">
                    <g transform="translate(95.833333, 95.833333)" id="Oval-2">
                        <path d="M14.5637452,26.5975581 L13.34339,25.3772029 C10.8116361,22.8454489 10.8116361,18.7406647 13.34339,16.2089107 L15.9602109,13.5920899 C18.4919649,11.0603359 22.5967491,11.0603359 25.128503,13.5920899 L25.799482,14.2630688 C29.2416885,11.9143983 33.1071415,10.1610972 37.2543888,9.14749909 L37.2543888,8.56938354 C37.2543888,4.98894274 40.1569096,2.08642198 43.7373504,2.08642198 L47.4380939,2.08642198 C51.0185347,2.08642198 53.9210555,4.98894274 53.9210555,8.56938354 L53.9210555,9.14749909 C58.0683028,10.1610972 61.9337558,11.9143983 65.3759623,14.2630688 L66.0469412,13.5920899 C68.5786952,11.0603359 72.6834794,11.0603359 75.2152334,13.5920899 L77.8320542,16.2089107 C80.3638082,18.7406647 80.3638082,22.8454489 77.8320542,25.3772029 L76.611699,26.5975581 C78.4694702,29.9388519 79.8237645,33.6098216 80.5693466,37.5030886 L82.8547606,37.5030886 C86.4352014,37.5030886 89.3377221,40.4056094 89.3377221,43.9860502 L89.3377221,47.6867937 C89.3377221,51.2672346 86.4352014,54.1697553 82.8547606,54.1697553 L79.9632231,54.1697553 C79.0063943,57.7259899 77.5337173,61.0644036 75.6324125,64.0959993 L77.8320542,66.2956411 C80.3638082,68.827395 80.3638082,72.9321793 77.8320542,75.4639332 L75.2152334,78.0807541 C72.6834794,80.6125081 68.5786952,80.6125081 66.0469412,78.0807541 L63.7721823,75.8059951 C60.7482809,77.6397702 57.4358697,79.030103 53.9210555,79.8891328 L53.9210555,83.1034604 C53.9210555,86.6839012 51.0185347,89.586422 47.4380939,89.586422 L43.7373504,89.586422 C40.1569096,89.586422 37.2543888,86.6839012 37.2543888,83.1034604 L37.2543888,79.8891328 C33.7395746,79.030103 30.4271634,77.6397702 27.403262,75.8059951 L25.128503,78.0807541 C22.5967491,80.6125081 18.4919649,80.6125081 15.9602109,78.0807541 L13.34339,75.4639332 C10.8116361,72.9321793 10.8116361,68.827395 13.34339,66.2956411 L15.5430318,64.0959993 C13.641727,61.0644036 12.16905,57.7259899 11.2122211,54.1697553 L8.3206837,54.1697553 C4.74024289,54.1697553 1.83772213,51.2672346 1.83772213,47.6867937 L1.83772213,43.9860502 C1.83772213,40.4056094 4.74024289,37.5030886 8.3206837,37.5030886 L10.6060977,37.5030886 C11.3516798,33.6098216 12.705974,29.9388519 14.5637452,26.5975581 Z M45.8333333,58.3333333 C52.7368927,58.3333333 58.3333333,52.7368927 58.3333333,45.8333333 C58.3333333,38.929774 52.7368927,33.3333333 45.8333333,33.3333333 C38.929774,33.3333333 33.3333333,38.929774 33.3333333,45.8333333 C33.3333333,52.7368927 38.929774,58.3333333 45.8333333,58.3333333 Z"></path>
                    </g>
                </g>
                <g id="Group-2" mask="url(#mask-2)" stroke="#0D9B70" stroke-linecap="round" stroke-linejoin="round" stroke-width="12">
                    <g transform="translate(16.666667, 16.666667)">
                        <path d="M65.81014,144.256592 L16.6666667,144.256592 C7.46192084,144.256592 -3.98730973e-11,136.794671 -3.9898751e-11,127.589925 L-3.98561184e-11,16.6666667 C-3.98572457e-11,7.46192084 7.46192084,-2.34426667e-11 16.6666667,-2.34443576e-11 L101.944987,-2.34408049e-11 C111.149733,-2.34424957e-11 118.611654,7.46192084 118.611654,16.6666667 L118.611654,57.6456706" id="Path-2"></path>
                        <path d="M92.5160071,32.4717554 L26.3097834,32.4717554" id="Path"></path>
                        <path d="M70.2596029,64.307735 L26.3398523,64.307735" id="Path"></path>
                        <path d="M59.8632987,96.1437145 L26.3398523,96.1437145" id="Path"></path>
                    </g>
                </g>
            </g>
        </g>
    </g>
</svg>