<?xml version="1.0" encoding="UTF-8"?>
<svg width="200px" height="200px" viewBox="0 0 200 200" version="1.1" xmlns="http://www.w3.org/2000/svg" xmlns:xlink="http://www.w3.org/1999/xlink">
    <!-- Generator: Sketch 53 (72520) - https://sketchapp.com -->
    <title>ico-sdlc</title>
    <desc>Created with Sketch.</desc>
    <defs>
        <rect id="path-1" x="0" y="0" width="200" height="200"></rect>
    </defs>
    <g id="Symbols" stroke="none" stroke-width="1" fill="none" fill-rule="evenodd">
        <g id="icon/product/sdlc">
            <g id="Group">
                <mask id="mask-2" fill="white">
                    <use xlink:href="#path-1"></use>
                </mask>
                <g id="Mask"></g>
                <path d="M156.17212,168.110622 C148.945521,175.305102 140.156546,178.902288 129.804932,178.902288 C119.453318,178.902288 110.615516,175.256492 103.29126,167.964788 C95.9670048,160.673085 92.304932,151.874562 92.304932,141.568955 C92.304932,131.263348 95.9670048,122.464825 103.29126,115.173122 C110.615516,107.881419 119.453318,104.235622 129.804932,104.235622 L129.804932,95.2909089 C129.804932,94.1403157 130.737672,93.2075756 131.888265,93.2075756 C132.298941,93.2075756 132.700457,93.3289515 133.042361,93.5564521 L152.3974,106.435164 C153.355314,107.072554 153.61515,108.365803 152.97776,109.323717 C152.807716,109.579271 152.583302,109.794092 152.320567,109.952815 L132.795552,121.748262 C131.810721,122.343218 130.530051,122.027162 129.935095,121.042331 C129.732444,120.706883 129.628522,120.321076 129.635264,119.929225 L129.804932,110.068955 C121.015826,110.068955 113.545197,113.131425 107.392823,119.256455 C101.240448,125.381486 98.164307,132.818911 98.164307,141.568955 C98.164307,150.318999 101.240448,157.756425 107.392823,163.881455 C113.545197,170.006486 121.015826,173.068955 129.804932,173.068955 C138.594038,173.068955 146.064667,170.006486 152.217041,163.881455 C157.54492,158.577256 160.565827,152.288846 161.27982,145.016082 C161.390311,143.890613 161.353163,141.668663 161.445557,141.568955 C162.18594,138.398517 166.941633,139.150552 167.304932,141.568955 C167.304932,142.694857 167.260639,143.803351 167.172053,144.894437 C166.449796,153.790281 162.783177,161.528946 156.17212,168.110622 Z" id="" stroke="#0D9B70" stroke-width="4.16666667" fill="#0D9B70" fill-rule="nonzero" mask="url(#mask-2)" transform="translate(129.804932, 136.054932) rotate(-45.000000) translate(-129.804932, -136.054932) "></path>
                <g id="Group-2" mask="url(#mask-2)" stroke="#0D9B70" stroke-linecap="round" stroke-linejoin="round" stroke-width="8.33333333">
                    <g transform="translate(16.666667, 16.666667)">
                        <path d="M60.4166667,144.256592 L16.6666667,144.256592 C7.46192084,144.256592 3.17360925e-13,136.794671 2.34479103e-13,127.589925 L3.80140364e-13,16.6666667 C3.79013107e-13,7.46192084 7.46192084,-5.30900623e-11 16.6666667,-5.30917532e-11 L101.944987,-6.10214101e-11 C111.149733,-6.1023101e-11 118.611654,7.46192084 118.611654,16.6666667 L118.611654,56.6652637" id="Path-2"></path>
                        <path d="M92.5160071,32.4717554 L26.3097834,32.4717554" id="Path"></path>
                        <path d="M70.2596029,64.307735 L26.3398523,64.307735" id="Path"></path>
                        <path d="M59.8632987,96.1437145 L26.3398523,96.1437145" id="Path"></path>
                    </g>
                </g>
            </g>
        </g>
    </g>
</svg>