<?xml version="1.0" encoding="UTF-8"?>
<svg width="200px" height="200px" viewBox="0 0 200 200" version="1.1" xmlns="http://www.w3.org/2000/svg" xmlns:xlink="http://www.w3.org/1999/xlink">
    <!-- Generator: Sketch 53 (72520) - https://sketchapp.com -->
    <title>ico-im</title>
    <desc>Created with Sketch.</desc>
    <defs>
        <rect id="path-1" x="0" y="0" width="200" height="200"></rect>
    </defs>
    <g id="Symbols" stroke="none" stroke-width="1" fill="none" fill-rule="evenodd">
        <g id="icon/product/im">
            <g id="Group">
                <mask id="mask-2" fill="white">
                    <use xlink:href="#path-1"></use>
                </mask>
                <g id="Mask"></g>
                <g id="Group-2" mask="url(#mask-2)" stroke="#0D9B70" stroke-linecap="round" stroke-linejoin="round" stroke-width="8.33333333">
                    <g transform="translate(16.666667, 16.666667)">
                        <path d="M65.81014,144.256592 L16.6666667,144.256592 C7.46192084,144.256592 8.60198715e-13,136.794671 8.10018719e-13,127.589925 L8.95283847e-13,16.6666667 C8.94156591e-13,7.46192084 7.46192084,-2.20926355e-11 16.6666667,-2.20943264e-11 L101.944987,-2.63469246e-11 C111.149733,-2.6356791e-11 118.611654,7.46192084 118.611654,16.6666667 L118.611654,79.1666667" id="Path-2"></path>
                        <path d="M92.5160071,32.4717554 L26.3097834,32.4717554" id="Path"></path>
                        <path d="M70.2596029,64.307735 L26.3398523,64.307735" id="Path"></path>
                        <path d="M59.8632987,96.1437145 L26.3398523,96.1437145" id="Path"></path>
                    </g>
                </g>
                <g id="Group-22" mask="url(#mask-2)" stroke="#0D9B70" stroke-width="8.33333333">
                    <g transform="translate(91.666667, 95.833333)">
                        <path d="M11.9426774,24.2806306 C8.27646212,24.2806306 5.30440744,27.2526853 5.30440744,30.9189006 L5.30440744,50.339293 C5.30440744,54.0055082 8.27646212,56.9775629 11.9426774,56.9775629 L37.0668122,56.9775629 C38.8891421,56.9775629 40.6961618,57.3102587 42.398997,57.9592874 L80.6579865,72.541544 C81.4130078,72.8293173 82.2142236,72.9768315 83.0222277,72.9768315 C86.688443,72.9768315 89.6604977,70.0047768 89.6604977,66.3385616 L89.6604977,14.331283 C89.6604977,13.5015 89.5049253,12.6790724 89.2018429,11.9066212 C87.8627391,8.49371404 84.0104732,6.81256415 80.597566,8.15166786 L42.1268685,23.2462048 C40.3847229,23.929761 38.5298632,24.2806306 36.6584145,24.2806306 L11.9426774,24.2806306 Z" id="Rectangle-8"></path>
                        <path d="M30.9307698,57.8634901 L54.1031257,84.419722" id="Line-5" stroke-linecap="round"></path>
                    </g>
                </g>
            </g>
        </g>
    </g>
</svg>