<?xml version="1.0" encoding="UTF-8"?>
<svg width="180px" height="180px" viewBox="0 0 180 180" version="1.1" xmlns="http://www.w3.org/2000/svg" xmlns:xlink="http://www.w3.org/1999/xlink">
    <!-- Generator: Sketch 53 (72520) - https://sketchapp.com -->
    <title>ico-cr</title>
    <desc>Created with Sketch.</desc>
    <defs>
        <rect id="path-1" x="0" y="0" width="180" height="180"></rect>
    </defs>
    <g id="Symbols" stroke="none" stroke-width="1" fill="none" fill-rule="evenodd">
        <g id="icon/product/change">
            <g id="Group">
                <mask id="mask-2" fill="white">
                    <use xlink:href="#path-1"></use>
                </mask>
                <g id="Mask"></g>
                <g id="Group-2" mask="url(#mask-2)" stroke="#0D9B70" stroke-linecap="round" stroke-linejoin="round" stroke-width="12">
                    <g transform="translate(16.666667, 16.666667)">
                        <path d="M56.7698161,144.256592 L16.6666667,144.256592 C7.46192084,144.256592 -1.64249568e-12,136.794671 -1.72128978e-12,127.589925 L-1.57562852e-12,16.6666667 C-1.57675577e-12,7.46192084 7.46192084,-1.24993434e-10 16.6666667,-1.24995125e-10 L101.944987,-1.29070088e-10 C111.149733,-1.29071779e-10 118.611654,7.46192084 118.611654,16.6666667 L118.611654,54.6875" id="Path-2"></path>
                        <path d="M92.5160071,32.4717554 L26.3097834,32.4717554" id="Path"></path>
                        <path d="M70.2596029,64.307735 L26.3398523,64.307735" id="Path"></path>
                        <path d="M59.8632987,96.1437145 L26.3398523,96.1437145" id="Path"></path>
                    </g>
                </g>
                <path d="M91.0005049,176.795187 C89.3544819,177.453596 87.9142334,177.165547 86.6797162,175.931029 C85.445199,174.696512 85.1571493,173.256264 85.8155585,171.610241 L98.1606691,142.599231 C98.3252714,142.105424 98.6133211,141.652774 99.0248268,141.241268 L148.034916,92.2311793 C149.76324,90.5028552 151.861888,89.6387061 154.330922,89.6387061 C156.799957,89.6387061 158.898605,90.5028552 160.626929,92.2311793 L170.379566,101.983817 C172.10789,103.712141 172.972039,105.810789 172.972039,108.279823 C172.972039,110.748858 172.10789,112.847505 170.379566,114.57583 L121.369477,163.70937 C120.957971,164.038574 120.546472,164.285474 120.134966,164.450076 L91.0005049,176.795187 Z M154.330922,98.5271857 L146.676954,106.181154 L156.429591,115.933792 L164.08356,108.279823 L154.330922,98.5271857 Z M105.938089,146.920019 L98.7779246,163.832821 L115.690726,156.672657 L150.133585,122.229798 L140.380947,112.477161 L105.938089,146.920019 Z" id="" fill="#0D9B70" fill-rule="nonzero" mask="url(#mask-2)" transform="translate(129.222039, 133.388706) rotate(-4.000000) translate(-129.222039, -133.388706) "></path>
                <path d="M92.3299154,177.083333 L173.37443,177.083333" id="Line-7" stroke="#0D9B70" stroke-width="12" stroke-linecap="round" stroke-linejoin="round" mask="url(#mask-2)"></path>
            </g>
        </g>
    </g>
</svg>