<?xml version="1.0" encoding="UTF-8"?>
<svg width="200px" height="200px" viewBox="0 0 200 200" version="1.1" xmlns="http://www.w3.org/2000/svg" xmlns:xlink="http://www.w3.org/1999/xlink">
    <!-- Generator: Sketch 53 (72520) - https://sketchapp.com -->
    <title>ico-apcr</title>
    <desc>Created with Sketch.</desc>
    <defs>
        <rect id="path-1" x="0" y="0" width="200" height="200"></rect>
    </defs>
    <g id="Symbols" stroke="none" stroke-width="1" fill="none" fill-rule="evenodd">
        <g id="icon/product/apcr">
            <g id="Group">
                <mask id="mask-2" fill="white">
                    <use xlink:href="#path-1"></use>
                </mask>
                <g id="Mask"></g>
                <g id="Group-23" mask="url(#mask-2)">
                    <g transform="translate(20.833333, 12.500000)">
                        <path d="M16.3620297,89.8476512 L14.8584892,88.3441107 C11.5672091,85.0528306 11.5672091,79.7166113 14.8584892,76.4253313 L18.091998,73.1918225 C21.383278,69.9005425 26.7194973,69.9005425 30.0107773,73.1918225 L30.8079769,73.9890221 C35.233671,70.9693029 40.2035392,68.7150586 45.5357143,67.4118611 L45.5357143,66.7611831 C45.5357143,62.1066102 49.3089911,58.3333333 53.963564,58.3333333 L58.536436,58.3333333 C63.1910089,58.3333333 66.9642857,62.1066102 66.9642857,66.7611831 L66.9642857,67.4118611 C72.2964608,68.7150586 77.266329,70.9693029 81.6920231,73.9890221 L82.4892227,73.1918225 C85.7805027,69.9005425 91.116722,69.9005425 94.408002,73.1918225 L97.6415108,76.4253313 C100.932791,79.7166113 100.932791,85.0528306 97.6415108,88.3441107 L96.1379703,89.8476512 C98.5265333,94.1436003 100.267769,98.8634186 101.226374,103.869048 L104.07215,103.869048 C108.726723,103.869048 112.5,107.642324 112.5,112.296897 L112.5,116.869769 C112.5,121.524342 108.726723,125.297619 104.07215,125.297619 L100.447073,125.297619 C99.2168642,129.869921 97.3234223,134.162167 94.8788876,138.059933 L97.6415108,140.822556 C100.932791,144.113836 100.932791,149.450055 97.6415108,152.741335 L94.408002,155.974844 C91.116722,159.266124 85.7805027,159.266124 82.4892227,155.974844 L79.6300202,153.115642 C75.7421469,155.473352 71.4833326,157.260923 66.9642857,158.36539 L66.9642857,162.405484 C66.9642857,167.060056 63.1910089,170.833333 58.536436,170.833333 L53.963564,170.833333 C49.3089911,170.833333 45.5357143,167.060056 45.5357143,162.405484 L45.5357143,158.36539 C41.0166674,157.260923 36.7578531,155.473352 32.8699798,153.115642 L30.0107773,155.974844 C26.7194973,159.266124 21.383278,159.266124 18.091998,155.974844 L14.8584892,152.741335 C11.5672091,149.450055 11.5672091,144.113836 14.8584892,140.822556 L17.6211124,138.059933 C15.1765777,134.162167 13.2831358,129.869921 12.0529273,125.297619 L8.42784972,125.297619 C3.77327685,125.297619 2.84217094e-14,121.524342 2.84217094e-14,116.869769 L1.42108547e-14,112.296897 C1.42108547e-14,107.642324 3.77327685,103.869048 8.42784972,103.869048 L11.2736257,103.869048 C12.2322313,98.8634186 13.9734667,94.1436003 16.3620297,89.8476512 Z M56.5657858,130.650791 C65.4417907,130.650791 72.6372144,123.455367 72.6372144,114.579362 C72.6372144,105.703357 65.4417907,98.5079336 56.5657858,98.5079336 C47.6897809,98.5079336 40.4943573,105.703357 40.4943573,114.579362 C40.4943573,123.455367 47.6897809,130.650791 56.5657858,130.650791 Z" id="Oval-2" stroke="#0D9B70" stroke-width="8.33333333" fill="none" stroke-linecap="round" stroke-linejoin="round"></path>
                        <path d="M123.611111,58.6086311 C120.601256,57.9211221 117.790909,56.7097959 115.281079,55.0756631 L112.877787,57.4789552 C111.02599,59.3307523 108.023634,59.3307523 106.171837,57.4789552 L105.021045,56.3281635 C103.169248,54.4763665 103.169248,51.4740103 105.021045,49.6222132 L107.477129,47.1661291 C105.895627,44.6639825 104.730507,41.8724508 104.079122,38.8888889 L100.575156,38.8888889 C97.9563198,38.8888889 95.8333333,36.7659025 95.8333333,34.147066 L95.8333333,32.5196007 C95.8333333,29.9007642 97.9563198,27.7777778 100.575156,27.7777778 L104.079122,27.7777778 C104.730507,24.7942159 105.895627,22.0026841 107.477129,19.5005376 L105.021045,17.0444534 C103.169248,15.1926564 103.169248,12.1903002 105.021045,10.3385032 L106.171837,9.18771142 C108.023634,7.33591439 111.02599,7.33591439 112.877787,9.18771142 L115.281079,11.5910036 C117.790909,9.95687076 120.601256,8.74554457 123.611111,8.05803554 L123.611111,4.74182291 C123.611111,2.12298643 125.734098,4.81072457e-16 128.352934,0 L129.980399,0 C132.599236,-4.81072457e-16 134.722222,2.12298643 134.722222,4.74182291 L134.722222,7.95246903 C137.796791,8.59289359 140.671604,9.77789957 143.241215,11.4020429 L145.455547,9.18771142 C147.307344,7.33591439 150.3097,7.33591439 152.161497,9.18771142 L153.312289,10.3385032 C155.164086,12.1903002 155.164086,15.1926564 153.312289,17.0444534 L151.150749,19.2059929 C152.828556,21.7829014 154.060655,24.6766056 154.737716,27.7777778 L157.758177,27.7777778 C160.377014,27.7777778 162.5,29.9007642 162.5,32.5196007 L162.5,34.147066 C162.5,36.7659025 160.377014,38.8888889 157.758177,38.8888889 L154.737716,38.8888889 C154.060655,41.9900611 152.828556,44.8837653 151.150749,47.4606737 L153.312289,49.6222132 C155.164086,51.4740103 155.164086,54.4763665 153.312289,56.3281635 L152.161497,57.4789552 C150.3097,59.3307523 147.307344,59.3307523 145.455547,57.4789552 L143.241215,55.2646238 C140.671604,56.8887671 137.796791,58.0737731 134.722222,58.7141976 L134.722222,61.9248438 C134.722222,64.5436802 132.599236,66.6666667 129.980399,66.6666667 L128.352934,66.6666667 C125.734098,66.6666667 123.611111,64.5436802 123.611111,61.9248438 L123.611111,58.6086311 Z M129.408419,52.345679 C139.908648,52.345679 148.420765,43.8335619 148.420765,33.3333333 C148.420765,22.8331048 139.908648,14.3209877 129.408419,14.3209877 C118.908191,14.3209877 110.396074,22.8331048 110.396074,33.3333333 C110.396074,43.8335619 118.908191,52.345679 129.408419,52.345679 Z" id="Oval-3" stroke="none" fill="#0D9B70" fill-rule="evenodd"></path>
                    </g>
                </g>
            </g>
        </g>
    </g>
</svg>