<?xml version="1.0" encoding="UTF-8"?>
<svg width="22px" height="23px" viewBox="0 0 22 23" version="1.1" xmlns="http://www.w3.org/2000/svg" xmlns:xlink="http://www.w3.org/1999/xlink">
    <!-- Generator: Sketch 49 (51002) - http://www.bohemiancoding.com/sketch -->
    <title>ico.alldocs</title>
    <desc>Created with Sketch.</desc>
    <defs>
        <filter x="-32.5%" y="-13.0%" width="146.2%" height="136.5%" filterUnits="objectBoundingBox" id="filter-1">
            <feOffset dx="-2" dy="2" in="SourceAlpha" result="shadowOffsetOuter1"></feOffset>
            <feColorMatrix values="0 0 0 0 1   0 0 0 0 1   0 0 0 0 1  0 0 0 1 0" type="matrix" in="shadowOffsetOuter1" result="shadowMatrixOuter1"></feColorMatrix>
            <feMerge>
                <feMergeNode in="shadowMatrixOuter1"></feMergeNode>
                <feMergeNode in="SourceGraphic"></feMergeNode>
            </feMerge>
        </filter>
    </defs>
    <g id="Symbols" stroke="none" stroke-width="1" fill="none" fill-rule="evenodd" opacity="0.400000006">
        <g id="menu.alldocs" transform="translate(-30.000000, -10.000000)" stroke="#0D9B70">
            <g id="ico.alldocs" transform="translate(31.000000, 11.000000)">
                <g id="Group">
                    <g id="Group-9" stroke-width="1.23076923">
                        <path d="M2.18803406,0 L9.84615398,4.4408921e-16 C11.0545718,-8.51184196e-16 12.034188,0.979616215 12.034188,2.18803406 L12.034188,12.5391191 C12.034188,13.747537 11.0545718,14.7271532 9.84615398,14.7271532 L2.18803406,14.7271532 C0.979616215,14.7271532 -2.96100706e-16,13.747537 -4.4408921e-16,12.5391191 L4.4408921e-16,2.18803406 C2.96100706e-16,0.979616215 0.979616215,1.11016118e-15 2.18803406,8.8817842e-16 Z M9.2991453,2.62984878 L2.64449911,2.62984878 L9.2991453,2.62984878 Z M6.01709402,5.78566732 L2.64752145,5.78566732 L6.01709402,5.78566732 Z M8.20512821,8.94148586 L2.64752145,8.94148586 L8.20512821,8.94148586 Z" id="Path"></path>
                    </g>
                    <g id="Group-9" filter="url(#filter-1)" transform="translate(7.692308, 4.615385)" fill="#FFFFFF" stroke-width="1.23076923">
                        <path d="M2.18803406,0 L9.84615398,4.4408921e-16 C11.0545718,-8.51184196e-16 12.034188,0.979616215 12.034188,2.18803406 L12.034188,12.5391191 C12.034188,13.747537 11.0545718,14.7271532 9.84615398,14.7271532 L2.18803406,14.7271532 C0.979616215,14.7271532 -2.96100706e-16,13.747537 -4.4408921e-16,12.5391191 L4.4408921e-16,2.18803406 C2.96100706e-16,0.979616215 0.979616215,1.11016118e-15 2.18803406,8.8817842e-16 Z M9.2991453,2.62984878 L2.64449911,2.62984878 L9.2991453,2.62984878 Z M6.01709402,5.78566732 L2.64752145,5.78566732 L6.01709402,5.78566732 Z M8.20512821,8.94148586 L2.64752145,8.94148586 L8.20512821,8.94148586 Z" id="Path"></path>
                    </g>
                </g>
            </g>
        </g>
    </g>
</svg>