<?xml version="1.0" encoding="UTF-8"?>
<svg width="19px" height="23px" viewBox="0 0 19 23" version="1.1" xmlns="http://www.w3.org/2000/svg" xmlns:xlink="http://www.w3.org/1999/xlink">
    <!-- Generator: Sketch 49 (51002) - http://www.bohemiancoding.com/sketch -->
    <title>ico.report@2x</title>
    <desc>Created with Sketch.</desc>
    <defs>
        <rect id="path-1" x="0" y="0" width="30" height="30"></rect>
    </defs>
    <g id="Symbols" stroke="none" stroke-width="1" fill="none" fill-rule="evenodd">
        <g id="menu.report.selected" transform="translate(-28.000000, -9.000000)">
            <g id="ico.report" transform="translate(22.000000, 5.000000)">
                <mask id="mask-2" fill="white">
                    <use xlink:href="#path-1"></use>
                </mask>
                <g id="Mask"></g>
                <path d="M9.53968254,5 L18.4285714,5 C19.8311994,5 20.968254,6.1370546 20.968254,7.53968254 L20.968254,20.6483516 C20.968254,22.0509796 19.8311994,23.1880342 18.4285714,23.1880342 L9.53968254,23.1880342 C8.1370546,23.1880342 7,22.0509796 7,20.6483516 L7,7.53968254 C7,6.1370546 8.1370546,5 9.53968254,5 Z M17.7936508,8.24786325 L10.0695079,8.24786325 L17.7936508,8.24786325 Z M13.984127,12.1452991 L10.073016,12.1452991 L13.984127,12.1452991 Z M16.5238095,16.042735 L10.073016,16.042735 L16.5238095,16.042735 Z" id="Path" stroke="#0D9B70" stroke-width="1.42857143" mask="url(#mask-2)"></path>
                <g id="Group-2" mask="url(#mask-2)">
                    <g transform="translate(17.424621, 20.424621) rotate(-45.000000) translate(-17.424621, -20.424621) translate(12.924621, 14.424621)" id="Group-3">
                        <g transform="translate(0.707107, 0.707107)">
                            <path d="M4,11 C1.790861,11 0,9.16843761 0,6.90909091 C0,5.94675182 0.324901989,5.06202232 0.868640415,4.36337853 C1.40145363,4.9100999 2.43446181,5.92993904 3.96766493,7.42289595 C6.05577257,6.11023319 7.26257841,5.33556562 7.58808246,5.09889323 C7.85180272,5.64461454 8,6.25915273 8,6.90909091 C8,9.16843761 6.209139,11 4,11 Z M4.31210452,0.570236936 C5.89101014,0.570236936 7.21266815,1.54372621 7.86313015,2.90241188 C7.13241254,3.39150393 5.9209583,4.16624045 4.22876746,5.22662141 C3.04498021,4.04520171 2.01434768,3.03599127 1.13686985,2.1989901 C1.86958143,1.2543447 3.0415393,0.570236936 4.31210452,0.570236936 Z" id="Oval" stroke="#FFFFFF" stroke-width="3" fill="#0D9B70"></path>
                            <path d="M4,11 C1.790861,11 -1.12576615e-12,9.16843761 -1.12576615e-12,6.90909091 C-1.12576615e-12,5.94675182 0.324901989,5.06202232 0.868640415,4.36337853 C1.40145363,4.9100999 2.43446181,5.92993904 3.96766493,7.42289595 C6.05577257,6.11023319 7.26257841,5.33556562 7.58808246,5.09889323 C7.85180272,5.64461454 8,6.25915273 8,6.90909091 C8,9.16843761 6.209139,11 4,11 Z M4.31210452,0.570236936 C5.89101014,0.570236936 7.21266815,1.54372621 7.86313015,2.90241188 C7.13241254,3.39150393 5.9209583,4.16624045 4.22876746,5.22662141 C3.04498021,4.04520171 2.01434768,3.03599127 1.13686985,2.1989901 C1.86958143,1.2543447 3.0415393,0.570236936 4.31210452,0.570236936 Z" id="Oval" fill="#0D9B70"></path>
                        </g>
                    </g>
                </g>
            </g>
        </g>
    </g>
</svg>