<?xml version="1.0" encoding="UTF-8"?>
<svg width="18px" height="22px" viewBox="0 0 18 22" version="1.1" xmlns="http://www.w3.org/2000/svg" xmlns:xlink="http://www.w3.org/1999/xlink">
    <!-- Generator: Sketch 49 (51002) - http://www.bohemiancoding.com/sketch -->
    <title>ico.report.doa</title>
    <desc>Created with Sketch.</desc>
    <defs>
        <rect id="path-1" x="0" y="0" width="30" height="30"></rect>
    </defs>
    <g id="Symbols" stroke="none" stroke-width="1" fill="none" fill-rule="evenodd" opacity="0.400000006">
        <g id="menu.report" transform="translate(-28.000000, -9.000000)">
            <g id="ico.report.doa" transform="translate(22.000000, 5.000000)">
                <mask id="mask-2" fill="white">
                    <use xlink:href="#path-1"></use>
                </mask>
                <g id="Mask"></g>
                <path d="M9.53968254,5 L18.4285714,5 C19.8311994,5 20.968254,6.1370546 20.968254,7.53968254 L20.968254,20.6483516 C20.968254,22.0509796 19.8311994,23.1880342 18.4285714,23.1880342 L9.53968254,23.1880342 C8.1370546,23.1880342 7,22.0509796 7,20.6483516 L7,7.53968254 C7,6.1370546 8.1370546,5 9.53968254,5 Z M17.7936508,8.24786325 L10.0695079,8.24786325 L17.7936508,8.24786325 Z M13.984127,12.1452991 L10.073016,12.1452991 L13.984127,12.1452991 Z M16.5238095,16.042735 L10.073016,16.042735 L16.5238095,16.042735 Z" id="Path" stroke="#0D9B70" stroke-width="1.42857143" mask="url(#mask-2)"></path>
                <g id="Group-2" mask="url(#mask-2)">
                    <g transform="translate(15.000000, 14.000000)">
                        <polygon id="Path-9" fill="#FFFFFF" points="0.370117187 11.1715088 0.00158691406 10.1444092 0.00158691406 4.79246393 1.8576744 4.79246393 2.13052071 4.79246393 2.13052071 0.045383655 7.91391218 0.045383655 7.91391218 11.0398819"></polygon>
                        <path d="M7.6,5.23076923 L9,5.23076923 L9,11 L1,11 L1,5.23076923 L2.4,5.23076923 L2.4,3.5 C2.4,2.81089399 2.65416412,2.22195757 3.1625,1.73317308 C3.67083588,1.24438858 4.28332975,1 5,1 C5.71667025,1 6.32916412,1.24438858 6.8375,1.73317308 C7.34583588,2.22195757 7.6,2.81089399 7.6,3.5 L7.6,5.23076923 Z M3.582,3.43164336 L3.582,5.23076923 L5.9128125,5.23076923 L7.59871094,5.23076923 L7.59871094,4.25052584 L6.418,4.25052584 L6.418,3.43164336 C6.418,3.04945904 6.28103546,2.72667308 6.00710227,2.46327579 C5.73316908,2.19987849 5.39747168,2.06818182 5,2.06818182 C4.60252832,2.06818182 4.26683092,2.19987849 3.99289773,2.46327579 C3.71896454,2.72667308 3.582,3.04945904 3.582,3.43164336 Z M7.88,10.1153846 L7.88,6.11538462 L2.12,6.11538462 L2.12,10.1153846 L7.88,10.1153846 Z M4.09544922,7.01947021 C4.33295041,6.79110369 4.63641959,6.67692214 5.00586589,6.67692214 C5.37531218,6.67692214 5.67878136,6.79110369 5.91628255,7.01947021 C6.15378374,7.24783674 6.27253255,7.53963404 6.27253255,7.89487086 C6.27253255,8.50384826 5.95586905,8.89714027 5.32253255,9.07475868 L5.32253255,9.77771935 L4.68919922,9.77771935 L4.68919922,9.07475868 C4.05586272,8.89714027 3.73919922,8.50384826 3.73919922,7.89487086 C3.73919922,7.53963404 3.85794803,7.24783674 4.09544922,7.01947021 Z M4.39200195,7.86922983 C4.39200195,8.25384714 4.59199995,8.44615291 4.99200195,8.44615291 C5.39200395,8.44615291 5.59200195,8.25384714 5.59200195,7.86922983 C5.59200195,7.48461252 5.39200395,7.29230675 4.99200195,7.29230675 C4.59199995,7.29230675 4.39200195,7.48461252 4.39200195,7.86922983 Z" id="ion-ios-locked-outline---Ionicons" fill="#0D9B70"></path>
                    </g>
                </g>
            </g>
        </g>
    </g>
</svg>