<?xml version="1.0" encoding="UTF-8"?>
<svg width="20px" height="24px" viewBox="0 0 20 24" version="1.1" xmlns="http://www.w3.org/2000/svg" xmlns:xlink="http://www.w3.org/1999/xlink">
    <!-- Generator: Sketch 49 (51002) - http://www.bohemiancoding.com/sketch -->
    <title>ico.searchdoc</title>
    <desc>Created with Sketch.</desc>
    <defs></defs>
    <g id="Symbols" stroke="none" stroke-width="1" fill="none" fill-rule="evenodd" opacity="0.400000006">
        <g id="menu.search" transform="translate(-32.000000, -9.000000)">
            <g id="ico.searchdoc" transform="translate(33.000000, 10.000000)">
                <g id="Group">
                    <path d="M2.53968254,0 L11.4285714,0 C12.8311994,-2.57658572e-16 13.968254,1.1370546 13.968254,2.53968254 L13.968254,15.6483516 C13.968254,17.0509796 12.8311994,18.1880342 11.4285714,18.1880342 L2.53968254,18.1880342 C1.1370546,18.1880342 1.0599508e-15,17.0509796 8.8817842e-16,15.6483516 L0,2.53968254 C-1.71772381e-16,1.1370546 1.1370546,-1.86430638e-16 2.53968254,-4.4408921e-16 Z M10.7936508,3.24786325 L3.0695079,3.24786325 L10.7936508,3.24786325 Z M6.98412698,7.14529915 L3.07301597,7.14529915 L6.98412698,7.14529915 Z M9.52380952,11.042735 L3.07301597,11.042735 L9.52380952,11.042735 Z" id="Path" stroke="#0D9B70" stroke-width="1.42857143"></path>
                    <path d="M13.5625,16.4843755 L13.46875,16.648438 L16,19.2031255 L15.203125,20.0000005 L12.671875,17.445313 L12.5078125,17.5625005 C11.8828094,17.9531275 11.2343784,18.148438 10.5625,18.148438 C9.57812008,18.148438 8.73828473,17.7968791 8.04296875,17.0937505 C7.34765277,16.390622 7,15.5468805 7,14.5625005 C7,13.5781206 7.34765277,12.7382853 8.04296875,12.0429693 C8.73828473,11.3476533 9.57812008,11.0000005 10.5625,11.0000005 C11.5468799,11.0000005 12.3867153,11.3476533 13.0820312,12.0429693 C13.7773472,12.7382853 14.125,13.5781206 14.125,14.5625005 C14.125,15.250004 13.9375019,15.8906226 13.5625,16.4843755 Z M12.5546872,12.5703129 C12.0078095,12.0234352 11.3437536,11.7500005 10.5624998,11.7500005 C9.78124593,11.7500005 9.11719011,12.0234352 8.57031241,12.5703129 C8.0234347,13.1171906 7.74999996,13.7812465 7.74999996,14.5625003 C7.74999996,15.3437542 8.0234347,16.00781 8.57031241,16.5546877 C9.11719011,17.1015654 9.78124593,17.3750002 10.5624998,17.3750002 C11.3437536,17.3750002 12.0078095,17.1015654 12.5546872,16.5546877 C13.1171899,15.9921849 13.3984371,15.3281291 13.3984371,14.5625003 C13.3984371,13.7968715 13.1171899,13.1328157 12.5546872,12.5703129 Z" id="ion-ios-search-strong---Ionicons" stroke="#FFFFFF" stroke-width="3" fill="#0D9B70"></path>
                    <path d="M13.5625,16.4843755 L13.46875,16.648438 L16,19.2031255 L15.203125,20.0000005 L12.671875,17.445313 L12.5078125,17.5625005 C11.8828094,17.9531275 11.2343784,18.148438 10.5625,18.148438 C9.57812008,18.148438 8.73828473,17.7968791 8.04296875,17.0937505 C7.34765277,16.390622 7,15.5468805 7,14.5625005 C7,13.5781206 7.34765277,12.7382853 8.04296875,12.0429693 C8.73828473,11.3476533 9.57812008,11.0000005 10.5625,11.0000005 C11.5468799,11.0000005 12.3867153,11.3476533 13.0820312,12.0429693 C13.7773472,12.7382853 14.125,13.5781206 14.125,14.5625005 C14.125,15.250004 13.9375019,15.8906226 13.5625,16.4843755 Z M12.5546872,12.5703129 C12.0078095,12.0234352 11.3437536,11.7500005 10.5624998,11.7500005 C9.78124593,11.7500005 9.11719011,12.0234352 8.57031241,12.5703129 C8.0234347,13.1171906 7.74999996,13.7812465 7.74999996,14.5625003 C7.74999996,15.3437542 8.0234347,16.00781 8.57031241,16.5546877 C9.11719011,17.1015654 9.78124593,17.3750002 10.5624998,17.3750002 C11.3437536,17.3750002 12.0078095,17.1015654 12.5546872,16.5546877 C13.1171899,15.9921849 13.3984371,15.3281291 13.3984371,14.5625003 C13.3984371,13.7968715 13.1171899,13.1328157 12.5546872,12.5703129 Z" id="ion-ios-search-strong---Ionicons" stroke="#0D9B70" stroke-width="0.5" fill="#0D9B70"></path>
                </g>
            </g>
        </g>
    </g>
</svg>