<?xml version="1.0" encoding="UTF-8"?>
<svg width="18px" height="19px" viewBox="0 0 18 19" version="1.1" xmlns="http://www.w3.org/2000/svg" xmlns:xlink="http://www.w3.org/1999/xlink">
    <!-- Generator: Sketch 49 (51002) - http://www.bohemiancoding.com/sketch -->
    <title>ico.setting</title>
    <desc>Created with Sketch.</desc>
    <defs></defs>
    <g id="Symbols" stroke="none" stroke-width="1" fill="none" fill-rule="evenodd" opacity="0.400000006">
        <g id="menu.setting" transform="translate(-32.000000, -11.000000)" stroke="#0D9B70" stroke-width="1.5">
            <g id="ico.setting" transform="translate(33.000000, 10.000000)">
                <path d="M14.296875,11.3203125 L16.1328125,12.6484375 C16.2890633,12.8046883 16.3151047,12.9869781 16.2109375,13.1953125 L14.53125,15.96875 C14.4270828,16.1770844 14.2708344,16.2421879 14.0625,16.1640625 L11.953125,15.34375 C11.3020801,15.7864605 10.8333348,16.0598953 10.546875,16.1640625 L10.234375,18.3125 C10.1822914,18.5208344 10.0390637,18.625 9.8046875,18.625 L6.484375,18.625 C6.24999883,18.625 6.10677109,18.5208344 6.0546875,18.3125 L5.7421875,16.1640625 C5.35156055,16.0078117 4.88281523,15.734377 4.3359375,15.34375 L2.2265625,16.1640625 C2.01822813,16.2682297 1.86197969,16.2031262 1.7578125,15.96875 L0.078125,13.1953125 C-0.0520839844,12.9609363 -0.0260425781,12.7786465 0.15625,12.6484375 L1.9140625,11.3203125 C1.9140625,11.2421871 1.90755215,11.1119801 1.89453125,10.9296875 C1.88151035,10.7473949 1.875,10.6041672 1.875,10.5 C1.875,10.3958328 1.88151035,10.2526051 1.89453125,10.0703125 C1.90755215,9.88801992 1.9140625,9.75781289 1.9140625,9.6796875 L0.1171875,8.3515625 C-0.0390632812,8.19531172 -0.0651046875,8.01302187 0.0390625,7.8046875 L1.71875,5.03125 C1.82291719,4.82291563 1.97916563,4.75781211 2.1875,4.8359375 L4.296875,5.65625 C4.94791992,5.21353945 5.41666523,4.94010469 5.703125,4.8359375 L6.015625,2.6875 C6.06770859,2.47916563 6.21093633,2.375 6.4453125,2.375 L9.765625,2.375 C10.0000012,2.375 10.1432289,2.47916563 10.1953125,2.6875 L10.46875,4.8359375 C10.859377,4.99218828 11.3281223,5.26562305 11.875,5.65625 L13.9453125,4.8359375 C14.1536469,4.73177031 14.322916,4.79687383 14.453125,5.03125 L16.1328125,7.8046875 C16.2630215,8.03906367 16.2369801,8.22135352 16.0546875,8.3515625 L14.296875,9.6796875 C14.296875,9.75781289 14.3033854,9.88801992 14.3164062,10.0703125 C14.3294271,10.2526051 14.3359375,10.3958328 14.3359375,10.5 C14.3359375,10.890627 14.3229168,11.1640617 14.296875,11.3203125 Z M6.015625,12.53125 C6.58854453,13.0781277 7.2786418,13.3515625 8.0859375,13.3515625 C8.8932332,13.3515625 9.58333047,13.0781277 10.15625,12.53125 C10.7291695,11.9843723 11.015625,11.3072957 11.015625,10.5 C11.015625,9.6927043 10.7291695,9.01562773 10.15625,8.46875 C9.58333047,7.92187227 8.8932332,7.6484375 8.0859375,7.6484375 C7.2786418,7.6484375 6.59505488,7.92187227 6.03515625,8.46875 C5.47525762,9.01562773 5.1953125,9.6927043 5.1953125,10.5 C5.1953125,11.3072957 5.46874727,11.9843723 6.015625,12.53125 Z" id="ion-android-settings---Ionicons"></path>
            </g>
        </g>
    </g>
</svg>