<svg height="20" viewBox="0 0 20 20" width="20" xmlns="http://www.w3.org/2000/svg"><g fill="#0d9b70" fill-rule="evenodd"><path d="m1.45 17.3308594v1.2441406h8.05c1.3794665.1348426 2.1627908.2765093 2.3499727.425.1871818.1484907.3038576.4151574.3500273.8h-10.75c-.33854336 0-.63150918-.1212227-.87890625-.3636719-.24739707-.2424491-.37109375-.5295556-.37109375-.8613281v-1.8375c0-.344533.20833125-.6348295.625-.8708984l.625-.3541016 5.48828125-2.5457031c-.44271055-.344533-.81380059-.7560523-1.11328125-1.2345703-.29948066-.4785181-.54361885-.9729793-.73242187-1.4833985-.18880303-.51041919-.32226524-1.00488039-.40039063-1.48339841s-.1171875-.8836572-.1171875-1.21542969v-3.0625c0-.51041922.16275879-1.02083078.48828125-1.53125s.75520566-.96978963 1.2890625-1.378125c.53385684-.40833538 1.13606436-.74010289 1.80664063-.9953125.67057626-.25520961 1.350908-.3828125 2.04101562-.3828125.6901076 0 1.3704394.12760289 2.0410156.3828125.6705763.25520961 1.2695286.58697712 1.796875.9953125.5273464.40833537.9570296.86770578 1.2890625 1.378125s.4980469 1.02083078.4980469 1.53125v3.0625c0 .37005393-.0390621.79752362-.1171875 1.28242187-.0781254.48489826-1.4686315.71594697-1.4317107.57791054.1992663-.74500112.2988982-1.36510735.2988982-1.86033241v-3.0625c0-.33177249-.130207-.6763003-.390625-1.03359375s-.5957011-.6858709-1.0058594-.98574219-.8756484-.54869693-1.3964843-.74648437c-.520836-.19778745-1.0481745-.29667969-1.5820313-.29667969-.53385684 0-1.06119531.09889224-1.58203125.29667969-.52083594.19778744-.98958125.44980315-1.40625.75605468-.41666875.30625154-.75195186.63801905-1.00585937.9953125-.25390752.35729346-.38085938.69544112-.38085938 1.01445313v3.0625c0 .59974258.15299326 1.36535993.45898438 2.296875.30599111.9315151.78450195 1.6524714 1.43554687 2.1628906.16927168.1276048.29622354.2902985.38085938.488086.08463583.1977874.11393242.4051421.08789062.6220703-.0260418.2041677-.10416602.3923819-.234375.5646484s-.29296777.3030595-.48828125.3923828l-5.48828125 2.5457032c-.07812539.0255209-.18554619.0893224-.32226563.1914062-.13671943.1020838-.20507812.2743477-.20507812.5167969z" stroke="#0d9b70" stroke-width=".5"/><path d="m7.55319522 6.51363447 2.03621564 2.10043149c.26456527.27290883.26186259.7074175-.00607712.97701409-.26726972.26892246-.70126494.2724104-.97282241.00781839l-2.08657939-2.03305853c-.60993701.38123576-1.24273717.57185079-1.89841946.57185079-.9606508 0-1.78024136-.34310704-2.45879629-1.02933142-.67855493-.68622437-1.0178273-1.50968127-1.0178273-2.47039539 0-.96071413.33927237-1.78035872 1.0178273-2.45895838s1.49814549-1.0178944 2.45879629-1.0178944 1.78024136.33929474 2.45879629 1.0178944 1.0178273 1.49824425 1.0178273 2.45895838c0 .67097494-.18297864 1.29619222-.54894085 1.87567058zm-1.48065726-3.30069166c-.40233795-.40401436-.89088386-.60601852-1.46565237-.60601852s-1.06331442.20200416-1.46565237.60601852c-.40233796.40401437-.60350392.89459588-.60350392 1.47175926s.20116596 1.0677449.60350392 1.47175926c.40233795.40401437.89088386.60601852 1.46565237.60601852s1.06331442-.20200415 1.46565237-.60601852c.41383333-.41555763.62074689-.90613915.62074689-1.47175926s-.20691356-1.05620162-.62074689-1.47175926z" transform="matrix(1.0000000097 0 0 1.0000000097 10.00677811961 9.99232997946)"/></g></svg>