<svg xmlns="http://www.w3.org/2000/svg" xmlns:xlink="http://www.w3.org/1999/xlink" width="200" height="200" viewBox="0 0 200 200">
    <defs>
        <path id="a" d="M0 0h200v200H0z"/>
    </defs>
    <g fill="none" fill-rule="evenodd">
        <mask id="b" fill="#fff">
            <use xlink:href="#a"/>
        </mask>
        <g fill="#0D9B70" fill-rule="nonzero" mask="url(#b)">
            <path d="M135.657 187.97c1.374 1.288 3.652 1.288 5.026 0l12.093-11.338 12.093 11.337c.707.663 1.61.994 2.513.994.903 0 1.806-.331 2.513-.994l7.303-6.846c.668-.626 1.06-1.473 1.06-2.356V65.06c0-8.392-7.263-15.202-16.216-15.202h-27.288v-37.51c0-1.84-1.61-3.349-3.573-3.349H21.831c-1.963 0-3.573 1.51-3.573 3.35v113.668c0 8.393 7.264 15.203 16.216 15.203H55.05c1.963 0 3.573-1.51 3.573-3.35s-1.61-3.35-3.573-3.35h-7.146c1.766-2.429 2.827-5.374 2.827-8.54v-60.92c0-4.711 4.083-8.54 9.109-8.54s9.109 3.829 9.109 8.54v113.67c0 .22.04.44.079.662.039.147.078.257.117.405.04.073.04.147.079.22.078.148.157.295.235.405.04.037.04.11.079.148.118.184.275.368.432.515l7.303 6.847c1.374 1.288 3.651 1.288 5.026 0l12.093-11.338 12.093 11.338c1.374 1.288 3.652 1.288 5.026 0l12.093-11.338 12.054 11.374zM43.623 65.06v60.957c0 4.712-4.084 8.54-9.11 8.54-5.025 0-9.109-3.828-9.109-8.54V15.663h102.243v34.196H59.84c-8.952 0-16.216 6.81-16.216 15.202zm65.374 115.804l-12.093-11.337a3.664 3.664 0 0 0-2.513-.994c-.903 0-1.806.331-2.513.994l-12.093 11.337-3.73-3.497V65.061c0-.478-.04-.957-.079-1.398 0-.148-.039-.258-.039-.405-.04-.332-.079-.663-.157-.994-.04-.147-.04-.258-.079-.405a7.473 7.473 0 0 0-.353-1.252c0-.036 0-.036-.04-.073a12.125 12.125 0 0 0-.51-1.252c-.039-.11-.117-.22-.157-.368-.157-.294-.275-.589-.47-.883-.08-.11-.119-.221-.197-.368-.197-.332-.432-.7-.668-1.031-.039-.037-.039-.074-.078-.11v-.037h88.697c5.025 0 9.109 3.828 9.109 8.54v112.343l-3.73 3.497-12.093-11.337c-1.375-1.289-3.652-1.289-5.026 0l-12.093 11.337-11.976-11.3c-1.374-1.289-3.651-1.289-5.026 0l-12.093 11.3zM90.7 82.252h66.435c1.963 0 3.573-1.51 3.573-3.35s-1.61-3.35-3.573-3.35H90.7c-1.963 0-3.573 1.51-3.573 3.35s1.61 3.35 3.573 3.35zm0 17.779h48.255c1.964 0 3.573-1.51 3.573-3.35s-1.61-3.35-3.573-3.35H90.7c-1.963 0-3.573 1.51-3.573 3.35 0 1.877 1.61 3.35 3.573 3.35zm0 16.306h66.435c1.963 0 3.573-1.509 3.573-3.35 0-1.84-1.61-3.349-3.573-3.349H90.7c-1.963 0-3.573 1.51-3.573 3.35 0 1.877 1.61 3.35 3.573 3.35zm6.322 11.89H90.7c-1.963 0-3.573 1.51-3.573 3.35s1.61 3.35 3.573 3.35h6.322c1.963 0 3.573-1.51 3.573-3.35s-1.61-3.35-3.573-3.35zm0 16.307H90.7c-1.963 0-3.573 1.509-3.573 3.35 0 1.84 1.61 3.35 3.573 3.35h6.322c1.963 0 3.573-1.51 3.573-3.35-.04-1.878-1.61-3.35-3.573-3.35zm60.113-16.307h-45.9c-1.963 0-3.573 1.51-3.573 3.35s1.61 3.35 3.573 3.35h45.9c1.963 0 3.573-1.51 3.573-3.35s-1.61-3.35-3.573-3.35zm-14.646 19.62c0-1.84-1.61-3.35-3.573-3.35h-27.68c-1.964 0-3.574 1.51-3.574 3.35s1.61 3.35 3.573 3.35h27.681c1.963 0 3.573-1.51 3.573-3.35z"/>
        </g>
    </g>
</svg>
